<svg width="54" height="54" viewBox="0 0 54 54" fill="none" xmlns="http://www.w3.org/2000/svg">
<path d="M26.5 29C30.0899 29 33 26.0899 33 22.5C33 18.9101 30.0899 16 26.5 16C22.9101 16 20 18.9101 20 22.5C20 26.0899 22.9101 29 26.5 29Z" stroke="white" stroke-width="4" stroke-linecap="round" stroke-linejoin="round"/>
<path d="M27 4C22.2261 4 17.6477 5.89642 14.2721 9.27208C10.8964 12.6477 9 17.2261 9 22C9 26.257 9.9045 29.0425 12.375 32.125L27 49L41.625 32.125C44.0955 29.0425 45 26.257 45 22C45 17.2261 43.1036 12.6477 39.7279 9.27208C36.3523 5.89642 31.7739 4 27 4Z" stroke="white" stroke-width="4" stroke-linecap="round" stroke-linejoin="round"/>
</svg>
