<svg width="36" height="36" viewBox="0 0 36 36" fill="none" xmlns="http://www.w3.org/2000/svg">
<path d="M18.5 20C20.9853 20 23 17.9853 23 15.5C23 13.0147 20.9853 11 18.5 11C16.0147 11 14 13.0147 14 15.5C14 17.9853 16.0147 20 18.5 20Z" stroke="#307FF9" stroke-width="2.5" stroke-linecap="round" stroke-linejoin="round"/>
<path d="M18 3C14.8174 3 11.7652 4.26428 9.51472 6.51472C7.26428 8.76516 6 11.8174 6 15C6 17.838 6.603 19.695 8.25 21.75L18 33L27.75 21.75C29.397 19.695 30 17.838 30 15C30 11.8174 28.7357 8.76516 26.4853 6.51472C24.2348 4.26428 21.1826 3 18 3Z" stroke="#307FF9" stroke-width="2.5" stroke-linecap="round" stroke-linejoin="round"/>
</svg>
