<svg width="32" height="32" viewBox="0 0 32 32" fill="none" xmlns="http://www.w3.org/2000/svg">
<path d="M9.05036 2C9.85611 2 13.0791 9.2518 13.0791 10.0576C13.0791 11.6691 10.6619 13.2806 9.85611 14.8921C9.05036 16.5036 10.6619 18.1151 12.2734 19.7266C12.9019 20.3551 15.4964 22.9496 17.1079 22.1439C18.7194 21.3381 20.3309 18.9209 21.9424 18.9209C22.7482 18.9209 30 22.1439 30 22.9496C30 26.1727 27.5827 28.5899 25.1655 29.3957C22.7482 30.2014 21.1367 30.2014 17.9137 29.3957C14.6906 28.5899 12.2734 27.7842 8.2446 23.7554C4.21583 19.7266 3.41007 17.3094 2.60432 14.0863C1.79856 10.8633 1.79856 9.2518 2.60432 6.83453C3.41007 4.41727 5.82734 2 9.05036 2Z" stroke="#307FF9" stroke-width="3" stroke-linecap="round" stroke-linejoin="round"/>
</svg>
