<svg width="24" height="24" viewBox="0 0 24 24" fill="none" xmlns="http://www.w3.org/2000/svg">
<path fill-rule="evenodd" clip-rule="evenodd" d="M4.68293 1C3.97137 1 3.28896 1.28266 2.78581 1.78581C2.28266 2.28896 2 2.97137 2 3.68293C2 4.39448 2.28266 5.0769 2.78581 5.58004C3.28896 6.08319 3.97137 6.36585 4.68293 6.36585C5.39448 6.36585 6.0769 6.08319 6.58004 5.58004C7.08319 5.0769 7.36585 4.39448 7.36585 3.68293C7.36585 2.97137 7.08319 2.28896 6.58004 1.78581C6.0769 1.28266 5.39448 1 4.68293 1ZM3.46341 3.68293C3.46341 3.35949 3.5919 3.0493 3.8206 2.8206C4.0493 2.5919 4.35949 2.46341 4.68293 2.46341C5.00636 2.46341 5.31655 2.5919 5.54525 2.8206C5.77396 3.0493 5.90244 3.35949 5.90244 3.68293C5.90244 4.00636 5.77396 4.31655 5.54525 4.54525C5.31655 4.77396 5.00636 4.90244 4.68293 4.90244C4.35949 4.90244 4.0493 4.77396 3.8206 4.54525C3.5919 4.31655 3.46341 4.00636 3.46341 3.68293ZM2 7.58537C2 7.3913 2.07709 7.20519 2.21431 7.06797C2.35153 6.93075 2.53765 6.85366 2.73171 6.85366H6.63415C6.82821 6.85366 7.01432 6.93075 7.15154 7.06797C7.28876 7.20519 7.36585 7.3913 7.36585 7.58537V20.2683C7.36585 20.4624 7.28876 20.6485 7.15154 20.7857C7.01432 20.9229 6.82821 21 6.63415 21H2.73171C2.53765 21 2.35153 20.9229 2.21431 20.7857C2.07709 20.6485 2 20.4624 2 20.2683V7.58537ZM3.46341 8.31707V19.5366H5.90244V8.31707H3.46341ZM8.82927 7.58537C8.82927 7.3913 8.90636 7.20519 9.04358 7.06797C9.1808 6.93075 9.36691 6.85366 9.56098 6.85366H13.4634C13.6575 6.85366 13.8436 6.93075 13.9808 7.06797C14.118 7.20519 14.1951 7.3913 14.1951 7.58537V8.00878L14.6195 7.82634C15.3513 7.51376 16.1275 7.31788 16.92 7.24585C19.6273 7 22 9.12683 22 11.8585V20.2683C22 20.4624 21.9229 20.6485 21.7857 20.7857C21.6485 20.9229 21.4624 21 21.2683 21H17.3659C17.1718 21 16.9857 20.9229 16.8485 20.7857C16.7112 20.6485 16.6341 20.4624 16.6341 20.2683V13.439C16.6341 13.1156 16.5057 12.8054 16.277 12.5767C16.0483 12.348 15.7381 12.2195 15.4146 12.2195C15.0912 12.2195 14.781 12.348 14.5523 12.5767C14.3236 12.8054 14.1951 13.1156 14.1951 13.439V20.2683C14.1951 20.4624 14.118 20.6485 13.9808 20.7857C13.8436 20.9229 13.6575 21 13.4634 21H9.56098C9.36691 21 9.1808 20.9229 9.04358 20.7857C8.90636 20.6485 8.82927 20.4624 8.82927 20.2683V7.58537ZM10.2927 8.31707V19.5366H12.7317V13.439C12.7317 12.7275 13.0144 12.0451 13.5175 11.5419C14.0207 11.0388 14.7031 10.7561 15.4146 10.7561C16.1262 10.7561 16.8086 11.0388 17.3118 11.5419C17.8149 12.0451 18.0976 12.7275 18.0976 13.439V19.5366H20.5366V11.8585C20.5366 10.001 18.9161 8.53366 17.0537 8.70341C16.4138 8.76147 15.787 8.91948 15.1961 9.17171L13.7522 9.79122C13.6408 9.83906 13.5193 9.85848 13.3986 9.84774C13.2779 9.837 13.1617 9.79644 13.0605 9.7297C12.9593 9.66295 12.8763 9.57212 12.8189 9.46536C12.7615 9.3586 12.7316 9.23926 12.7317 9.11805V8.31707H10.2927Z" fill="white"/>
</svg>
