<svg width="54" height="54" viewBox="0 0 54 54" fill="none" xmlns="http://www.w3.org/2000/svg">
<path fill-rule="evenodd" clip-rule="evenodd" d="M36.5 46.4C39.3643 46.4 42.1114 45.3043 44.1368 43.3539C46.1621 41.4035 47.3 38.7583 47.3 36C47.3 33.2417 46.1621 30.5965 44.1368 28.6461C42.1114 26.6957 39.3643 25.6 36.5 25.6C33.6357 25.6 30.8886 26.6957 28.8632 28.6461C26.8379 30.5965 25.7 33.2417 25.7 36C25.7 38.7583 26.8379 41.4035 28.8632 43.3539C30.8886 45.3043 33.6357 46.4 36.5 46.4ZM50 36C50 39.4478 48.5777 42.7544 46.0459 45.1924C43.5142 47.6304 40.0804 49 36.5 49C32.9196 49 29.4858 47.6304 26.9541 45.1924C24.4223 42.7544 23 39.4478 23 36C23 32.5522 24.4223 29.2456 26.9541 26.8076C29.4858 24.3696 32.9196 23 36.5 23C40.0804 23 43.5142 24.3696 46.0459 26.8076C48.5777 29.2456 50 32.5522 50 36Z" fill="white"/>
<path d="M31.0032 37.6432C31.1536 39.312 32.6608 40.6112 35.3648 40.768V42H36.5648V40.7596C39.3648 40.5888 41 39.2784 41 37.38C41 35.6496 39.752 34.7592 37.512 34.3L36.5648 34.104V30.744C37.768 30.8644 38.5296 31.4384 38.712 32.2336H40.8176C40.6672 30.6236 39.0896 29.3664 36.5648 29.2292V28H35.3648V29.26C32.9744 29.4644 31.3488 30.7216 31.3488 32.5024C31.3488 34.076 32.5584 35.0784 34.5712 35.4872L35.3648 35.658V39.2196C34.136 39.0572 33.32 38.4636 33.1376 37.6432H31.0032ZM35.3552 33.852C34.1744 33.614 33.5344 33.124 33.5344 32.3904C33.5344 31.5672 34.2256 30.9512 35.3648 30.772V33.852H35.3552ZM36.7376 35.9408C38.1744 36.232 38.8336 36.7024 38.8336 37.534C38.8336 38.4832 38.0112 39.1328 36.5648 39.2532V35.9072L36.7376 35.9408Z" fill="white"/>
<path d="M7.8125 6C7.06658 6 6.35121 6.28446 5.82376 6.79081C5.29632 7.29716 5 7.98392 5 8.7L5 30.3C5 31.0161 5.29632 31.7028 5.82376 32.2092C6.35121 32.7155 7.06658 33 7.8125 33H19.2959C19.4609 32.0694 19.7028 31.1694 20.0216 30.3H13.4375C13.4375 28.8678 12.8449 27.4943 11.79 26.4816C10.7351 25.4689 9.30434 24.9 7.8125 24.9V14.1C9.30434 14.1 10.7351 13.5311 11.79 12.5184C12.8449 11.5057 13.4375 10.1322 13.4375 8.7H41.5625C41.5625 10.1322 42.1551 11.5057 43.21 12.5184C44.2649 13.5311 45.6957 14.1 47.1875 14.1V23.6256C48.2562 24.5436 49.2041 25.5912 50 26.7414V8.7C50 7.98392 49.7037 7.29716 49.1762 6.79081C48.6488 6.28446 47.9334 6 47.1875 6H7.8125Z" fill="white"/>
<path d="M33.9945 18.7055L34 18.478C33.9994 17.5341 33.7543 16.6063 33.2883 15.7846C32.8224 14.9628 32.1514 14.2749 31.3403 13.7875C30.5293 13.3 29.6056 13.0296 28.6589 13.0023C27.7122 12.975 26.7744 13.1919 25.9365 13.6318C25.0985 14.0717 24.3888 14.7199 23.876 15.5134C23.3631 16.307 23.0646 17.2191 23.0094 18.1614C22.9541 19.1037 23.1439 20.0442 23.5605 20.8919C23.977 21.7396 24.6062 22.4658 25.387 23C27.7641 20.7477 30.7608 19.2525 33.9945 18.7055Z" fill="white"/>
</svg>
