<svg width="16" height="16" viewBox="0 0 16 16" fill="none" xmlns="http://www.w3.org/2000/svg">
<path d="M5.02158 2C5.36691 2 6.7482 5.10791 6.7482 5.45324C6.7482 6.14388 5.71223 6.83453 5.36691 7.52518C5.02158 8.21583 5.71223 8.90647 6.40288 9.59712C6.67223 9.86647 7.78417 10.9784 8.47482 10.6331C9.16547 10.2878 9.85612 9.2518 10.5468 9.2518C10.8921 9.2518 14 10.6331 14 10.9784C14 12.3597 12.964 13.3957 11.9281 13.741C10.8921 14.0863 10.2014 14.0863 8.82014 13.741C7.43885 13.3957 6.40288 13.0504 4.67626 11.3237C2.94964 9.59712 2.60432 8.56115 2.25899 7.17986C1.91367 5.79856 1.91367 5.10791 2.25899 4.07194C2.60432 3.03597 3.64029 2 5.02158 2Z" stroke="black" stroke-width="1.5" stroke-linecap="round" stroke-linejoin="round"/>
</svg>
