<svg width="39" height="39" viewBox="0 0 39 39" fill="none" xmlns="http://www.w3.org/2000/svg">
<path d="M32.5 11.375H17.875M22.75 27.625H8.125" stroke="#061766" stroke-width="2" stroke-linecap="round" stroke-linejoin="round"/>
<path d="M27.625 32.5C30.3174 32.5 32.5 30.3174 32.5 27.625C32.5 24.9326 30.3174 22.75 27.625 22.75C24.9326 22.75 22.75 24.9326 22.75 27.625C22.75 30.3174 24.9326 32.5 27.625 32.5Z" stroke="#061766" stroke-width="2" stroke-linecap="round" stroke-linejoin="round"/>
<path d="M11.375 16.25C14.0674 16.25 16.25 14.0674 16.25 11.375C16.25 8.68261 14.0674 6.5 11.375 6.5C8.68261 6.5 6.5 8.68261 6.5 11.375C6.5 14.0674 8.68261 16.25 11.375 16.25Z" stroke="#061766" stroke-width="2" stroke-linecap="round" stroke-linejoin="round"/>
</svg>
