<svg width="181" height="100" viewBox="0 0 181 100" fill="none" xmlns="http://www.w3.org/2000/svg">
<path d="M156.002 50.4733H162.324C162.324 54.4104 165.402 55.9438 168.896 55.9438C171.184 55.9438 174.678 55.2807 174.678 52.2553C174.678 49.0227 170.186 48.5668 165.86 47.365C161.451 46.2874 157 44.4225 157 38.9519C157 32.8596 162.74 30 168.106 30C174.303 30 180.002 32.6938 180.002 39.5321H173.679C173.471 36.0094 170.976 35.0561 167.815 35.0561C165.735 35.0561 163.322 35.9265 163.322 38.4131C163.322 40.6925 164.737 41.0241 172.182 42.889C174.387 43.3864 181 44.8369 181 51.5094C181 56.9385 176.757 61 168.647 61C162.075 61 155.877 57.7674 156.002 50.4733Z" fill="white"/>
<path d="M125 45.6243C125 36.8382 130.412 30 139.5 30C148.588 30 154 36.8382 154 45.6243C154 54.1618 148.588 61 139.5 61C130.412 61 125 54.1618 125 45.6243ZM131.486 45.6243C131.486 50.5561 133.675 55.5294 139.5 55.5294C145.325 55.5294 147.514 50.5561 147.514 45.6243C147.514 40.4438 145.325 35.4706 139.5 35.4706C133.675 35.4706 131.486 40.4438 131.486 45.6243Z" fill="white"/>
<path d="M94 45.6243C94 36.8382 99.3348 30 108.294 30C114.24 30 119.9 33.6885 120.552 40.4438H114.443C113.67 37.1283 111.348 35.4706 108.294 35.4706C102.552 35.4706 100.394 40.4438 100.394 45.6243C100.394 50.5561 102.552 55.5294 108.294 55.5294C112.489 55.5294 114.851 53.2914 115.217 49.1471H108.783V44.2981H121V60.2955H116.928L116.276 56.9385C113.995 59.9225 111.104 61 108.294 61C99.3348 61 94 54.1618 94 45.6243Z" fill="white"/>
<path d="M65 60V31H80.6504C85.8537 31 89.1463 34.6148 89.1463 39.0014C89.1463 42.4132 87.8049 44.972 84.5528 46.2717V46.3529C87.6829 47.2059 88.5772 50.1709 88.7805 53.1359C88.9024 54.9636 88.8211 58.416 90 60H83.6179C82.8862 58.1723 82.9268 55.3697 82.6016 53.0546C82.1545 50.0084 80.9756 48.6681 77.7642 48.6681H71.3821V60H65ZM71.3821 35.9552V44.119H78.374C81.2602 44.119 82.7642 42.9006 82.7642 39.9762C82.7642 37.1737 81.2602 35.9552 78.374 35.9552H71.3821Z" fill="white"/>
<path d="M32 45.6243C32 36.8382 37.4117 30 46.5 30C55.5883 30 61 36.8382 61 45.6243C61 54.1618 55.5883 61 46.5 61C37.4117 61 32 54.1618 32 45.6243ZM38.4858 45.6243C38.4858 50.5561 40.6752 55.5294 46.5 55.5294C52.3248 55.5294 54.5142 50.5561 54.5142 45.6243C54.5142 40.4438 52.3248 35.4706 46.5 35.4706C40.6752 35.4706 38.4858 40.4438 38.4858 45.6243Z" fill="white"/>
<path d="M3 60V31H9.50912V42.1289H21.4909V31H28V60H21.4909V47.4902H9.50912V60H3Z" fill="white"/>
<path d="M166 78.5081V75.4948H169.122V70H173.261V75.4948H177V78.5081H173.261V88.2925C173.261 89.9586 173.406 90.8095 175.257 90.8095C175.838 90.8095 176.419 90.8095 177 90.6677V93.7873C176.092 93.8936 175.221 94 174.314 94C169.957 94 169.231 92.3693 169.122 89.3205V78.5081H166Z" fill="#FB011C"/>
<path d="M155 94V75.5009H158.884V79.0791H158.957C159.429 77.1111 161.934 75 164.439 75C165.419 75 165.601 75.0716 166 75.1073V79.0433C165.419 78.936 164.802 78.8644 164.221 78.8644C161.426 78.8644 159.139 81.0829 159.139 85.1977V94H155Z" fill="#FB011C"/>
<path d="M142 94C136.31 94 133 90.0257 133 84.4826C133 79.0092 136.31 75 142 75C147.69 75 151 79.0092 151 84.4826C151 90.0257 147.69 94 142 94ZM142 90.8624C145.517 90.8624 147.069 87.6202 147.069 84.4826C147.069 81.3798 145.517 78.1376 142 78.1376C138.483 78.1376 136.931 81.3798 136.931 84.4826C136.931 87.6202 138.483 90.8624 142 90.8624Z" fill="#FB011C"/>
<path d="M112 100V75.4848H115.797V77.9086H115.867C116.992 75.831 119.137 75 121.492 75C127.223 75 130 79.259 130 84.5222C130 89.3698 127.504 93.8712 122.16 93.8712C119.84 93.8712 117.309 93.0402 116.078 91.0665H116.008V100H112ZM125.992 84.4529C125.992 81.2327 124.27 78.1163 120.965 78.1163C117.59 78.1163 115.867 80.6094 115.867 84.4529C115.867 88.054 117.73 90.7548 120.965 90.7548C124.621 90.7548 125.992 87.5693 125.992 84.4529Z" fill="#FB011C"/>
<path d="M91 93L98.0038 83.53L91.5747 75H96.5312L100.41 80.5358L104.469 75H109.21L102.888 83.3211L110 93H105.079L100.374 86.3501L95.8129 93H91Z" fill="#FB011C"/>
<path d="M89.9211 85.5284H76.9049C76.9049 88.3523 78.412 90.8624 81.6661 90.8624C83.961 90.8624 85.2969 89.8514 85.9819 87.8642H89.6813C88.8592 91.8037 85.5024 94 81.6661 94C76.0828 94 73 90.0954 73 84.5174C73 79.3927 76.2883 75 81.5633 75C87.1466 75 90.5719 80.1248 89.9211 85.5284ZM76.9049 82.9138H86.0162C85.8449 80.4037 84.235 78.1376 81.5633 78.1376C78.8573 78.1376 77.0076 80.2294 76.9049 82.9138Z" fill="#FB011C"/>
<path d="M62 94C56.3103 94 53 90.0257 53 84.4826C53 79.0092 56.3103 75 62 75C67.6897 75 71 79.0092 71 84.4826C71 90.0257 67.6897 94 62 94ZM62 90.8624C65.5172 90.8624 67.069 87.6202 67.069 84.4826C67.069 81.3798 65.5172 78.1376 62 78.1376C58.4828 78.1376 56.931 81.3798 56.931 84.4826C56.931 87.6202 58.4828 90.8624 62 90.8624Z" fill="#FB011C"/>
<path d="M40 78.5081V75.4948H43.1221V70H47.2607V75.4948H51V78.5081H47.2607V88.2925C47.2607 89.9586 47.4059 90.8095 49.2574 90.8095C49.8383 90.8095 50.4191 90.8095 51 90.6677V93.7873C50.0924 93.8936 49.2211 94 48.3135 94C43.9571 94 43.231 92.3693 43.1221 89.3205V78.5081H40Z" fill="#FB011C"/>
<path d="M38 75V93.4991H34.0529V90.9228H33.9824C32.9956 92.7834 30.8106 94 28.8018 94C24.0088 94 22 91.6026 22 86.7363V75H26.0176V86.3427C26.0176 89.5989 27.2863 90.7797 29.5066 90.7797C32.8546 90.7797 33.9824 88.597 33.9824 85.7345V75H38Z" fill="#FB011C"/>
<path d="M17.0814 80.2294V89.5028C17.0814 90.4789 17.2907 90.8624 18.0233 90.8624C18.3721 90.8624 18.6163 90.8624 19 90.7927V93.5468C18.407 93.756 17.1512 94 16.4884 94C14.8488 94 13.7326 93.4422 13.4186 91.8037C11.8488 93.3376 9.30233 94 7.17442 94C3.86047 94 1 92.2569 1 88.7358C1 84.3083 4.45349 83.5413 7.76744 83.1229L9.96512 82.844C12.407 82.5303 13.3488 82.1468 13.3488 80.578C13.3488 78.4862 11.186 78.1376 9.61628 78.1376C7.38372 78.1376 5.81395 79.044 5.63953 80.9963H1.66279C1.94186 76.3596 5.84884 75 9.86047 75C13.3837 75 17.0814 76.4294 17.0814 80.2294ZM13.1047 87.4459V84.4826C12.3023 84.9706 11.7093 85.1101 10.0349 85.3193L8.43023 85.5284C6.61628 85.7725 4.97674 86.4697 4.97674 88.3872C4.97674 90.2 6.68605 90.8624 8.39535 90.8624C10.4884 90.8624 13.1047 89.956 13.1047 87.4459Z" fill="#FB011C"/>
<path d="M0 0H178V19H0V0Z" fill="#307FF9"/>
</svg>
