<svg width="20" height="20" viewBox="0 0 20 20" fill="none" xmlns="http://www.w3.org/2000/svg">
<path d="M16.5226 4.47354C15.7393 3.68653 14.8064 3.06251 13.7783 2.63785C12.7501 2.21319 11.6474 1.99638 10.5342 2.00005C5.86985 2.00005 2.06834 5.78254 2.06834 10.4235C2.06834 11.911 2.46131 13.356 3.19598 14.631L2 19L6.48492 17.827C7.72362 18.4985 9.11608 18.8555 10.5342 18.8555C15.1985 18.8555 19 15.073 19 10.432C19 8.17953 18.1201 6.06304 16.5226 4.47354ZM10.5342 17.4275C9.26985 17.4275 8.03116 17.0875 6.94623 16.45L6.68995 16.297L4.02462 16.994L4.73367 14.41L4.56281 14.1465C3.86022 13.0305 3.48722 11.7404 3.48643 10.4235C3.48643 6.56453 6.64724 3.41954 10.5256 3.41954C12.405 3.41954 14.1734 4.15054 15.4975 5.47654C16.1532 6.12582 16.6729 6.89819 17.0263 7.74886C17.3797 8.59953 17.5599 9.51155 17.5563 10.432C17.5734 14.291 14.4126 17.4275 10.5342 17.4275ZM14.3955 12.1915C14.1819 12.0895 13.1397 11.5795 12.9518 11.503C12.7553 11.435 12.6186 11.401 12.4734 11.605C12.3281 11.8175 11.9266 12.2935 11.807 12.4295C11.6874 12.574 11.5593 12.591 11.3457 12.4805C11.1322 12.3785 10.4487 12.149 9.64573 11.435C9.01357 10.874 8.59497 10.1855 8.46683 9.97303C8.34724 9.76053 8.44975 9.65003 8.5608 9.53953C8.65477 9.44603 8.77437 9.29303 8.87688 9.17403C8.9794 9.05503 9.02211 8.96153 9.09045 8.82553C9.15879 8.68103 9.12462 8.56203 9.07337 8.46003C9.02211 8.35803 8.59497 7.32103 8.42412 6.89603C8.25327 6.48803 8.07387 6.53903 7.94573 6.53053H7.53568C7.39045 6.53053 7.16834 6.58153 6.97186 6.79403C6.78392 7.00653 6.23719 7.51653 6.23719 8.55353C6.23719 9.59053 6.99749 10.5935 7.1 10.7295C7.20251 10.874 8.59497 12.999 10.7136 13.9085C11.2176 14.1295 11.6106 14.257 11.9181 14.3505C12.4221 14.512 12.8834 14.4865 13.2508 14.4355C13.6608 14.376 14.5065 13.9255 14.6774 13.4325C14.8568 12.9395 14.8568 12.523 14.797 12.4295C14.7372 12.336 14.609 12.2935 14.3955 12.1915Z" fill="#307FF9"/>
</svg>
