<svg width="54" height="54" viewBox="0 0 54 54" fill="none" xmlns="http://www.w3.org/2000/svg">
<path d="M46.75 9H22C21.4033 9 20.831 9.23503 20.409 9.65338C19.9871 10.0717 19.75 10.6391 19.75 11.2308V35.7692C19.75 36.3609 19.9871 36.9283 20.409 37.3466C20.831 37.765 21.4033 38 22 38H46.75C47.3467 38 47.919 37.765 48.341 37.3466C48.7629 36.9283 49 36.3609 49 35.7692V11.2308C49 10.6391 48.7629 10.0717 48.341 9.65338C47.919 9.23503 47.3467 9 46.75 9ZM4 38H19.75V22.3846H11.875L4 29.5922V38Z" stroke="white" stroke-width="4" stroke-linejoin="round"/>
<path d="M20.0667 40C20.0667 41.0609 19.589 42.0783 18.7389 42.8284C17.8887 43.5786 16.7356 44 15.5333 44C14.331 44 13.1779 43.5786 12.3278 42.8284C11.4776 42.0783 11 41.0609 11 40M45 40C45 41.0609 44.5224 42.0783 43.6722 42.8284C42.8221 43.5786 41.669 44 40.4667 44C39.2644 44 38.1113 43.5786 37.2611 42.8284C36.411 42.0783 35.9333 41.0609 35.9333 40" stroke="white" stroke-width="4" stroke-linecap="round" stroke-linejoin="round"/>
</svg>
