<svg width="54" height="54" viewBox="0 0 54 54" fill="none" xmlns="http://www.w3.org/2000/svg">
<path d="M41.9777 17.5C41.6679 21.7365 38.4783 25 35 25C31.5217 25 28.3268 21.7375 28.0223 17.5C27.7051 13.0927 30.8102 10 35 10C39.1898 10 42.2949 13.1729 41.9777 17.5Z" stroke="white" stroke-width="4" stroke-linecap="round" stroke-linejoin="round"/>
<path d="M35 32C28.2113 32 21.683 35.4682 20.0475 42.2225C19.8308 43.1161 20.3756 44 21.2684 44H48.7326C49.6254 44 50.167 43.1161 49.9535 42.2225C48.318 35.36 41.7897 32 35 32Z" stroke="white" stroke-width="4" stroke-miterlimit="10"/>
<path d="M20.9828 18.9938C20.7408 22.3538 18.2187 25 15.5 25C12.7813 25 10.2551 22.3548 10.0172 18.9938C9.76991 15.4983 12.2248 13 15.5 13C18.7752 13 21.2301 15.5624 20.9828 18.9938Z" stroke="white" stroke-width="4" stroke-linecap="round" stroke-linejoin="round"/>
<path d="M21 32.152C19.1329 31.32 17.0764 31 14.8969 31C9.51789 31 4.33542 33.6009 3.03722 38.6669C2.86654 39.3369 3.29893 40 4.00647 40H15.621" stroke="white" stroke-width="4" stroke-miterlimit="10" stroke-linecap="round"/>
</svg>
