<svg width="113" height="63" viewBox="0 0 113 63" fill="none" xmlns="http://www.w3.org/2000/svg">
<path d="M98.0011 31.5481H101.795C101.795 33.9612 103.641 34.9011 105.738 34.9011C107.11 34.9011 109.207 34.4947 109.207 32.6404C109.207 30.6591 106.511 30.3797 103.916 29.643C101.27 28.9826 98.6001 27.8396 98.6001 24.4866C98.6001 20.7527 102.044 19 105.263 19C108.982 19 112.401 20.6511 112.401 24.8422H108.608C108.483 22.6832 106.985 22.0989 105.089 22.0989C103.841 22.0989 102.393 22.6324 102.393 24.1564C102.393 25.5535 103.242 25.7567 107.709 26.8997C109.032 27.2045 113 28.0936 113 32.1832C113 35.5107 110.454 38 105.588 38C101.645 38 97.9262 36.0187 98.0011 31.5481Z" fill="#4354A3"/>
<path d="M78 28.5762C78 23.1912 81.359 19 87 19C92.641 19 96 23.1912 96 28.5762C96 33.8088 92.641 38 87 38C81.359 38 78 33.8088 78 28.5762ZM82.0256 28.5762C82.0256 31.5989 83.3846 34.6471 87 34.6471C90.6154 34.6471 91.9744 31.5989 91.9744 28.5762C91.9744 25.4011 90.6154 22.3529 87 22.3529C83.3846 22.3529 82.0256 25.4011 82.0256 28.5762Z" fill="#4354A3"/>
<path d="M58 28.5762C58 23.1912 61.359 19 67 19C70.7436 19 74.3077 21.2607 74.7179 25.4011H70.8718C70.3846 23.369 68.9231 22.3529 67 22.3529C63.3846 22.3529 62.0256 25.4011 62.0256 28.5762C62.0256 31.5989 63.3846 34.6471 67 34.6471C69.641 34.6471 71.1282 33.2754 71.359 30.7353H67.3077V27.7634H75V37.5682H72.4359L72.0256 35.5107C70.5897 37.3396 68.7692 38 67 38C61.359 38 58 33.8088 58 28.5762Z" fill="#4354A3"/>
<path d="M41 38V20H51.0163C54.3463 20 56.4537 22.2437 56.4537 24.9664C56.4537 27.084 55.5951 28.6723 53.5138 29.479V29.5294C55.5171 30.0588 56.0894 31.8992 56.2195 33.7395C56.2976 34.8739 56.2455 37.0168 57 38H52.9155C52.4472 36.8655 52.4732 35.1261 52.265 33.6891C51.9789 31.7983 51.2244 30.9664 49.1691 30.9664H45.0845V38H41ZM45.0845 23.0756V28.1429H49.5594C51.4065 28.1429 52.3691 27.3866 52.3691 25.5714C52.3691 23.8319 51.4065 23.0756 49.5594 23.0756H45.0845Z" fill="#4354A3"/>
<path d="M20 28.5762C20 23.1912 23.359 19 29 19C34.641 19 38 23.1912 38 28.5762C38 33.8088 34.641 38 29 38C23.359 38 20 33.8088 20 28.5762ZM24.0256 28.5762C24.0256 31.5989 25.3846 34.6471 29 34.6471C32.6154 34.6471 33.9744 31.5989 33.9744 28.5762C33.9744 25.4011 32.6154 22.3529 29 22.3529C25.3846 22.3529 24.0256 25.4011 24.0256 28.5762Z" fill="#4354A3"/>
<path d="M2 38V20H5.90547V26.9076H13.0945V20H17V38H13.0945V30.2353H5.90547V38H2Z" fill="#4354A3"/>
<path d="M103 49.3176V47.4343H104.987V44H107.62V47.4343H110V49.3176H107.62V55.4328C107.62 56.4742 107.713 57.0059 108.891 57.0059C109.261 57.0059 109.63 57.0059 110 56.9173V58.8671C109.422 58.9335 108.868 59 108.29 59C105.518 59 105.056 57.9808 104.987 56.0753V49.3176H103Z" fill="#FB011C"/>
<path d="M96 59V47.3164H98.4719V49.5763H98.5182C98.8185 48.3333 100.413 47 102.007 47C102.63 47 102.746 47.0452 103 47.0678V49.5537C102.63 49.4859 102.238 49.4407 101.868 49.4407C100.089 49.4407 98.6337 50.8418 98.6337 53.4407V59H96Z" fill="#FB011C"/>
<path d="M88.5 59C85.023 59 83 56.4899 83 52.989C83 49.5321 85.023 47 88.5 47C91.977 47 94 49.5321 94 52.989C94 56.4899 91.977 59 88.5 59ZM88.5 57.0183C90.6494 57.0183 91.5977 54.9706 91.5977 52.989C91.5977 51.0294 90.6494 48.9817 88.5 48.9817C86.3506 48.9817 85.4023 51.0294 85.4023 52.989C85.4023 54.9706 86.3506 57.0183 88.5 57.0183Z" fill="#FB011C"/>
<path d="M70 63V47.3102H72.3203V48.8615H72.3633C73.0508 47.5319 74.3613 47 75.8008 47C79.3027 47 81 49.7258 81 53.0942C81 56.1967 79.4746 59.0776 76.209 59.0776C74.791 59.0776 73.2441 58.5457 72.4922 57.2825H72.4492V63H70ZM78.5508 53.0499C78.5508 50.9889 77.498 48.9945 75.4785 48.9945C73.416 48.9945 72.3633 50.59 72.3633 53.0499C72.3633 55.3546 73.502 57.0831 75.4785 57.0831C77.7129 57.0831 78.5508 55.0443 78.5508 53.0499Z" fill="#FB011C"/>
<path d="M57 58L61.4234 52.2128L57.363 47H60.4934L62.9433 50.383L65.5066 47H68.5009L64.5085 52.0851L69 58H65.8923L62.9206 53.9362L60.0397 58H57Z" fill="#FB011C"/>
<path d="M56.9489 53.6495H48.5267C48.5267 55.433 49.5019 57.0183 51.6074 57.0183C53.0924 57.0183 53.9568 56.3798 54.4001 55.1248H56.7938C56.2618 57.6128 54.0898 59 51.6074 59C47.9947 59 46 56.5339 46 53.011C46 49.7743 48.1277 47 51.541 47C55.1537 47 57.37 50.2367 56.9489 53.6495ZM48.5267 51.9982H54.4222C54.3114 50.4128 53.2697 48.9817 51.541 48.9817C49.79 48.9817 48.5932 50.3028 48.5267 51.9982Z" fill="#FB011C"/>
<path d="M38.5 59C35.023 59 33 56.4899 33 52.989C33 49.5321 35.023 47 38.5 47C41.977 47 44 49.5321 44 52.989C44 56.4899 41.977 59 38.5 59ZM38.5 57.0183C40.6494 57.0183 41.5977 54.9706 41.5977 52.989C41.5977 51.0294 40.6494 48.9817 38.5 48.9817C36.3506 48.9817 35.4023 51.0294 35.4023 52.989C35.4023 54.9706 36.3506 57.0183 38.5 57.0183Z" fill="#FB011C"/>
<path d="M25 49.3176V47.4343H26.9868V44H29.6205V47.4343H32V49.3176H29.6205V55.4328C29.6205 56.4742 29.7129 57.0059 30.8911 57.0059C31.2607 57.0059 31.6304 57.0059 32 56.9173V58.8671C31.4224 58.9335 30.868 59 30.2904 59C27.5182 59 27.0561 57.9808 26.9868 56.0753V49.3176H25Z" fill="#FB011C"/>
<path d="M24 47V58.6836H21.533V57.0565H21.489C20.8722 58.2316 19.5066 59 18.2511 59C15.2555 59 14 57.4859 14 54.4124V47H16.511V54.1638C16.511 56.2203 17.304 56.9661 18.6916 56.9661C20.7841 56.9661 21.489 55.5876 21.489 53.7797V47H24Z" fill="#FB011C"/>
<path d="M10.8275 50.3028V56.1596C10.8275 56.7761 10.9554 57.0183 11.4031 57.0183C11.6163 57.0183 11.7655 57.0183 12 56.9743V58.7138C11.6376 58.8459 10.8702 59 10.4651 59C9.46318 59 8.78101 58.6477 8.58915 57.6128C7.62984 58.5817 6.07364 59 4.77326 59C2.74806 59 1 57.8991 1 55.6752C1 52.8789 3.11047 52.3945 5.13566 52.1303L6.47868 51.9541C7.97093 51.756 8.54651 51.5138 8.54651 50.5229C8.54651 49.2018 7.22481 48.9817 6.2655 48.9817C4.90116 48.9817 3.94186 49.5541 3.83527 50.7872H1.40504C1.57558 47.8587 3.96318 47 6.41473 47C8.56783 47 10.8275 47.9028 10.8275 50.3028ZM8.39729 54.8606V52.989C7.90698 53.2972 7.54457 53.3853 6.52132 53.5174L5.5407 53.6495C4.43217 53.8037 3.43023 54.244 3.43023 55.455C3.43023 56.6 4.47481 57.0183 5.51938 57.0183C6.79845 57.0183 8.39729 56.4459 8.39729 54.8606Z" fill="#FB011C"/>
<path d="M0 0H111V12H0V0Z" fill="#307FF9"/>
</svg>
