<svg width="54" height="54" viewBox="0 0 54 54" fill="none" xmlns="http://www.w3.org/2000/svg">
<g clip-path="url(#clip0_130_1228)">
<path d="M15.4025 38.8889H5.75V41.1667C5.75 42.3056 4.85 43.4444 3.5 43.4444H1.25C0.125 43.4444 -1 42.3056 -1 41.1667V22.9444L3.725 9.27778C4.175 7.91111 5.3 7 6.875 7H31.625C32.975 7 34.325 7.91111 34.775 9.27778L39.2975 22.3522C37.6234 20.4894 35.51 19.0866 33.155 18.275L30.725 11.5556H7.55L5.3 18.3889H23.5475C21.0275 19.3 18.8225 20.8944 17.18 22.9444H3.5V34.3333H14.03C14.255 35.9506 14.75 37.4767 15.4025 38.8889ZM5.75 28.6389C5.75 30.4611 7.325 32.0556 9.125 32.0556C10.925 32.0556 12.5 30.4611 12.5 28.6389C12.5 26.8167 10.925 25.2222 9.125 25.2222C7.325 25.2222 5.75 26.8167 5.75 28.6389ZM28.4975 22.0561C22.8725 22.0561 18.3725 26.6117 18.3725 32.3061C18.3725 38.0006 22.8725 42.5561 28.4975 42.5561C30.5 42.5561 32.3 41.9867 33.875 41.0072L40.8725 48L44 44.8339L37.07 37.75C38.06 36.2011 38.6225 34.3333 38.6225 32.3061C38.6225 26.6117 34.1225 22.0561 28.4975 22.0561ZM28.4975 26.6117C31.625 26.6117 34.1225 29.1628 34.1225 32.3061C34.1225 35.4494 31.625 38.0006 28.4975 38.0006C25.37 38.0006 22.8725 35.4722 22.8725 32.3061C22.8725 29.14 25.3925 26.6117 28.4975 26.6117Z" fill="white"/>
</g>
<defs>
<clipPath id="clip0_130_1228">
<rect width="54" height="54" fill="white"/>
</clipPath>
</defs>
</svg>
