<svg width="54" height="54" viewBox="0 0 54 54" fill="none" xmlns="http://www.w3.org/2000/svg">
<path d="M42.5556 7H11.4444C8.97778 7 7 8.97778 7 11.4444V42.5556C7 43.7343 7.46825 44.8648 8.30175 45.6983C9.13524 46.5317 10.2657 47 11.4444 47H42.5556C45.0222 47 47 45.0222 47 42.5556V11.4444C47 10.2657 46.5317 9.13524 45.6983 8.30175C44.8648 7.46825 43.7343 7 42.5556 7ZM42.5556 42.5556H11.4444V11.4444H42.5556V42.5556ZM38.1111 34.1556C38.1111 36.3333 36.3333 38.1111 34.1556 38.1111C31.9778 38.1111 30.2222 36.3333 30.2222 34.1556C30.2222 31.9778 31.9778 30.2222 34.1556 30.2222C36.3333 30.2222 38.1111 31.9778 38.1111 34.1556ZM19.2222 38.1778L15.8889 34.8444L34.8444 15.8889L38.1778 19.2222L19.2222 38.1778ZM16 19.9556C16 17.7556 17.7556 16 19.9556 16C22.1333 16 23.8889 17.7556 23.8889 19.9556C23.8889 22.1333 22.1333 23.8889 19.9556 23.8889C17.7556 23.8889 16 22.1333 16 19.9556Z" fill="white"/>
</svg>
