<svg width="54" height="54" viewBox="0 0 54 54" fill="none" xmlns="http://www.w3.org/2000/svg">
<path d="M9 9.5C9 8.30653 9.47411 7.16193 10.318 6.31802C11.1619 5.47411 12.3065 5 13.5 5H31.5C32.0967 5.00013 32.6689 5.23726 33.0907 5.65925L44.3408 16.9093C44.7627 17.3311 44.9999 17.9033 45 18.5V45.5C45 46.6935 44.5259 47.8381 43.682 48.682C42.8381 49.5259 41.6935 50 40.5 50H13.5C12.3065 50 11.1619 49.5259 10.318 48.682C9.47411 47.8381 9 46.6935 9 45.5V9.5ZM39.5685 18.5L31.5 10.4315V18.5H39.5685ZM27 9.5H13.5V45.5H40.5V23H29.25C28.6533 23 28.081 22.7629 27.659 22.341C27.2371 21.919 27 21.3467 27 20.75V9.5ZM18 29.75C18 29.1533 18.2371 28.581 18.659 28.159C19.081 27.7371 19.6533 27.5 20.25 27.5H33.75C34.3467 27.5 34.919 27.7371 35.341 28.159C35.7629 28.581 36 29.1533 36 29.75C36 30.3467 35.7629 30.919 35.341 31.341C34.919 31.7629 34.3467 32 33.75 32H20.25C19.6533 32 19.081 31.7629 18.659 31.341C18.2371 30.919 18 30.3467 18 29.75ZM18 38.75C18 38.1533 18.2371 37.581 18.659 37.159C19.081 36.7371 19.6533 36.5 20.25 36.5H33.75C34.3467 36.5 34.919 36.7371 35.341 37.159C35.7629 37.581 36 38.1533 36 38.75C36 39.3467 35.7629 39.919 35.341 40.341C34.919 40.7629 34.3467 41 33.75 41H20.25C19.6533 41 19.081 40.7629 18.659 40.341C18.2371 39.919 18 39.3467 18 38.75Z" fill="white"/>
</svg>
