<svg width="54" height="54" viewBox="0 0 54 54" fill="none" xmlns="http://www.w3.org/2000/svg">
<path d="M34.25 8C35.4435 8 36.5881 8.47411 37.432 9.31802C38.2759 10.1619 38.75 11.3065 38.75 12.5V14.75H42.17C42.8445 14.7501 43.5103 14.9018 44.1183 15.1939C44.7262 15.486 45.2607 15.911 45.6822 16.4375L49.0123 20.6022C49.6515 21.4003 49.9998 22.3923 50 23.4147V32.75C50 33.9435 49.5259 35.0881 48.682 35.932C47.8381 36.7759 46.6935 37.25 45.5 37.25C45.5 39.0402 44.7888 40.7571 43.523 42.023C42.2571 43.2888 40.5402 44 38.75 44C36.9598 44 35.2429 43.2888 33.977 42.023C32.7112 40.7571 32 39.0402 32 37.25H23C23 38.1364 22.8254 39.0142 22.4862 39.8331C22.147 40.6521 21.6498 41.3962 21.023 42.023C20.3962 42.6498 19.6521 43.147 18.8331 43.4862C18.0142 43.8254 17.1364 44 16.25 44C15.3636 44 14.4858 43.8254 13.6669 43.4862C12.8479 43.147 12.1038 42.6498 11.477 42.023C10.8502 41.3962 10.353 40.6521 10.0138 39.8331C9.67459 39.0142 9.5 38.1364 9.5 37.25C8.30653 37.25 7.16193 36.7759 6.31802 35.932C5.47411 35.0881 5 33.9435 5 32.75V12.5C5 11.3065 5.47411 10.1619 6.31802 9.31802C7.16193 8.47411 8.30653 8 9.5 8H34.25ZM16.25 35C15.6533 35 15.081 35.2371 14.659 35.659C14.2371 36.081 14 36.6533 14 37.25C14 37.8467 14.2371 38.419 14.659 38.841C15.081 39.2629 15.6533 39.5 16.25 39.5C16.8467 39.5 17.419 39.2629 17.841 38.841C18.2629 38.419 18.5 37.8467 18.5 37.25C18.5 36.6533 18.2629 36.081 17.841 35.659C17.419 35.2371 16.8467 35 16.25 35ZM38.75 35C38.1533 35 37.581 35.2371 37.159 35.659C36.7371 36.081 36.5 36.6533 36.5 37.25C36.5 37.8467 36.7371 38.419 37.159 38.841C37.581 39.2629 38.1533 39.5 38.75 39.5C39.3467 39.5 39.919 39.2629 40.341 38.841C40.7629 38.419 41 37.8467 41 37.25C41 36.6533 40.7629 36.081 40.341 35.659C39.919 35.2371 39.3467 35 38.75 35ZM34.25 12.5H9.5V32.75H11.219C11.8275 32.0681 12.5683 31.517 13.3964 31.1302C14.2245 30.7433 15.1225 30.5289 16.036 30.4999C16.9495 30.4708 17.8594 30.6278 18.7104 30.9612C19.5613 31.2947 20.3356 31.7976 20.9862 32.4395L21.281 32.75H33.719L33.9777 32.4777L34.25 32.219V12.5ZM42.17 19.25H38.75V30.5C40.595 30.5 42.2668 31.2425 43.4862 32.4395L43.781 32.75H45.5V23.4125L42.17 19.25Z" fill="white"/>
</svg>
