<svg width="19" height="18" viewBox="0 0 19 18" fill="none" xmlns="http://www.w3.org/2000/svg">
<path d="M5.28058 0.5C5.76978 0.5 7.72662 4.90288 7.72662 5.39209C7.72662 6.3705 6.25899 7.34892 5.76978 8.32734C5.28058 9.30576 6.25899 10.2842 7.23741 11.2626C7.61899 11.6442 9.19424 13.2194 10.1727 12.7302C11.1511 12.241 12.1295 10.7734 13.1079 10.7734C13.5971 10.7734 18 12.7302 18 13.2194C18 15.1763 16.5324 16.6439 15.0647 17.1331C13.5971 17.6223 12.6187 17.6223 10.6619 17.1331C8.70504 16.6439 7.23741 16.1547 4.79137 13.7086C2.34532 11.2626 1.85612 9.79496 1.36691 7.83813C0.877698 5.8813 0.877698 4.90288 1.36691 3.43525C1.85612 1.96763 3.32374 0.5 5.28058 0.5Z" stroke="white" stroke-linecap="round" stroke-linejoin="round"/>
</svg>
